<?xml version="1.0" encoding="UTF-8"?>
<svg width="28px" height="22px" viewBox="0 0 28 22" version="1.1" xmlns="http://www.w3.org/2000/svg" xmlns:xlink="http://www.w3.org/1999/xlink">
    <!-- Generator: Sketch 48.2 (47327) - http://www.bohemiancoding.com/sketch -->
    <title>Artboard</title>
    <desc>Created with Sketch.</desc>
    <defs></defs>
    <g id="Page-1" stroke="none" stroke-width="1" fill="none" fill-rule="evenodd">
        <g id="Artboard" fill="#000000" fill-rule="nonzero">
            <g id="mobile-nav" transform="translate(2.000000, -1.000000)">
                <path d="M24,10 L0,10 C-1.104,10 -2,10.896 -2,12 C-2,13.104 -1.104,14 0,14 L24,14 C25.104,14 26,13.104 26,12 C26,10.896 25.104,10 24,10 Z" id="Shape" transform="translate(12.000000, 12.000000) rotate(45.000000) translate(-12.000000, -12.000000) "></path>
                <path d="M24,10 L0,10 C-1.104,10 -2,10.896 -2,12 C-2,13.104 -1.104,14 0,14 L24,14 C25.104,14 26,13.104 26,12 C26,10.896 25.104,10 24,10 Z" id="Shape-Copy" transform="translate(12.000000, 12.000000) rotate(-45.000000) translate(-12.000000, -12.000000) "></path>
            </g>
        </g>
    </g>
</svg>