<?xml version="1.0" encoding="UTF-8"?>
<svg width="37px" height="43px" viewBox="0 0 37 43" version="1.1" xmlns="http://www.w3.org/2000/svg" xmlns:xlink="http://www.w3.org/1999/xlink">
    <!-- Generator: Sketch 46.1 (44463) - http://www.bohemiancoding.com/sketch -->
    <title>report-icon</title>
    <desc>Created with Sketch.</desc>
    <defs></defs>
    <g id="Symbols" stroke="none" stroke-width="1" fill="none" fill-rule="evenodd">
        <g id="Updates" transform="translate(-61.000000, -28.000000)">
            <g id="Mid">
                <g id="National-Incident-Ma" transform="translate(57.000000, 28.000000)">
                    <g id="report-icon" transform="translate(6.000000, 1.000000)">
                        <path d="M6,35 L15.9264706,35 C15.9264706,35 16,35 16,35 L16,26 L13.7941176,26 L11.5147059,28.5511811 L9.30882353,26.4251969 L6,30.2519685 L6,35 Z" id="Shape" fill="#56A87E" fill-rule="nonzero"></path>
                        <g id="Group" stroke="#56A87E" stroke-linecap="round" stroke-linejoin="round">
                            <g transform="translate(4.528302, 5.283019)" id="Shape" stroke-width="1.75">
                                <path d="M0,0.377358491 L9.58490566,0.377358491"></path>
                                <path d="M0,3.32075472 L8.37735849,3.32075472"></path>
                                <path d="M0,9.05660377 L8.98113208,9.05660377"></path>
                                <path d="M0,6.18867925 L9.35849057,6.18867925"></path>
                                <path d="M0,11.9245283 L8.0754717,11.9245283"></path>
                            </g>
                            <g transform="translate(19.622642, 23.396226)" id="Shape" stroke-width="1.75">
                                <path d="M0.0754716981,0.0754716981 L8.60377358,0.0754716981"></path>
                                <path d="M0.0754716981,5.81132075 L9.28301887,5.81132075"></path>
                                <path d="M0.0754716981,11.5471698 L9.28301887,11.5471698"></path>
                                <path d="M0.0754716981,2.94339623 L9.58490566,2.94339623"></path>
                                <path d="M0.0754716981,8.67924528 L8.30188679,8.67924528"></path>
                            </g>
                            <polyline id="Shape" stroke-width="1.3" points="15.9245283 35.3207547 5.28301887 35.3207547 5.28301887 25.2830189"></polyline>
                            <path d="M33.3584906,26.0377358 L33.3584906,38.7169811 C33.3584906,39.3962264 32.8301887,39.9245283 32.1509434,39.9245283 L1.35849057,39.9245283 C0.679245283,39.9245283 0.150943396,39.3962264 0.150943396,38.7169811 L0.150943396,1.73584906 C0.150943396,1.05660377 0.679245283,0.528301887 1.35849057,0.528301887 L32.1509434,0.528301887 C32.8301887,0.528301887 33.3584906,1.05660377 33.3584906,1.73584906 L33.3584906,8.30188679 L33.3584906,26.0377358 Z" id="Shape" stroke-width="2.6"></path>
                        </g>
                        <rect id="Rectangle-4" stroke="#56A87E" x="18.5" y="5.5" width="11" height="11" rx="1"></rect>
                    </g>
                </g>
            </g>
        </g>
    </g>
</svg>