<?xml version="1.0" encoding="UTF-8"?>
<svg width="50px" height="40px" viewBox="0 0 50 40" version="1.1" xmlns="http://www.w3.org/2000/svg" xmlns:xlink="http://www.w3.org/1999/xlink">
    <!-- Generator: Sketch 46.1 (44463) - http://www.bohemiancoding.com/sketch -->
    <title>twitter</title>
    <desc>Created with Sketch.</desc>
    <defs></defs>
    <g id="Symbols" stroke="none" stroke-width="1" fill="none" fill-rule="evenodd">
        <g id="Updates" transform="translate(-734.000000, -34.000000)" fill-rule="nonzero" fill="#31AEE0">
            <g id="Mid">
                <g id="twitter" transform="translate(734.000000, 34.000000)">
                    <g id="twitter-icon">
                        <path d="M49.1079055,4.75496122 C47.3004618,5.55585338 45.3611007,6.09900928 43.3234436,6.34149963 C45.40403,5.09558713 46.9966668,3.11939514 47.7515002,0.771844678 C45.7998622,1.92563973 43.6456139,2.76344307 41.3502205,3.21761095 C39.5121245,1.25674512 36.89761,0.035386579 33.9976758,0.035386579 C28.4341995,0.035386579 23.9232532,4.54633286 23.9232532,10.10676 C23.9232532,10.8953752 24.0122412,11.665615 24.1841189,12.4021534 C15.8128258,11.981687 8.38974864,7.97096733 3.42158529,1.87653183 C2.55312964,3.36180524 2.05908164,5.0924577 2.05908164,6.9398618 C2.05908164,10.435109 3.83892225,13.5191175 6.5393756,15.3234318 C4.88840312,15.2682256 3.33564646,14.8140577 1.97627223,14.059144 L1.97627223,14.1849629 C1.97627223,19.0641383 5.45001461,23.1362428 10.0560473,24.0630342 C9.21214557,24.2901181 8.32226539,24.4159371 7.40165265,24.4159371 C6.75113338,24.4159371 6.12203864,24.351503 5.50522088,24.2287332 C6.78788407,28.2333545 10.507166,31.1454854 14.9137981,31.2253259 C11.4676588,33.9257793 7.12241161,35.530693 2.40283698,35.530693 C1.58966784,35.530693 0.78869543,35.4815851 8.02416757e-05,35.3925971 C4.45886943,38.2557003 9.75233253,39.9250481 15.4416278,39.9250481 C33.9732823,39.9250481 44.1029915,24.5755378 44.1029915,11.2636845 L44.0692097,9.95951654 C46.0484509,8.54782474 47.760728,6.77416274 49.1079055,4.75496122 Z" id="Shape"></path>
                    </g>
                </g>
            </g>
        </g>
    </g>
</svg>