<?xml version="1.0" encoding="UTF-8"?>
<svg width="473px" height="453px" viewBox="0 0 473 453" version="1.1" xmlns="http://www.w3.org/2000/svg" xmlns:xlink="http://www.w3.org/1999/xlink">
    <!-- Generator: Sketch 46.2 (44496) - http://www.bohemiancoding.com/sketch -->
    <title>logo</title>
    <desc>Created with Sketch.</desc>
    <defs>
        <polygon id="path-1" points="352 221 456 422 248 422"></polygon>
        <filter x="-3.4%" y="-2.5%" width="106.7%" height="107.0%" filterUnits="objectBoundingBox" id="filter-2">
            <feOffset dx="0" dy="2" in="SourceAlpha" result="shadowOffsetOuter1"></feOffset>
            <feGaussianBlur stdDeviation="2" in="shadowOffsetOuter1" result="shadowBlurOuter1"></feGaussianBlur>
            <feComposite in="shadowBlurOuter1" in2="SourceAlpha" operator="out" result="shadowBlurOuter1"></feComposite>
            <feColorMatrix values="0 0 0 0 0   0 0 0 0 0   0 0 0 0 0  0 0 0 0.5 0" type="matrix" in="shadowBlurOuter1"></feColorMatrix>
        </filter>
        <path d="M211.194751,200.727407 C213.063181,194.096908 215.496203,188.613843 218.501939,184.286152 C221.507676,179.958462 225.102374,175.769733 229.290095,171.715998 C233.469693,167.666232 236.418564,165.029914 238.120461,163.799103 C239.826419,162.564321 241.207433,161.635257 242.263503,161 C238.120461,172.831668 236.150485,183.051371 236.353575,191.667049 C236.556666,200.282727 238.34386,207.254676 241.715159,212.574956 C245.086458,217.895237 249.980934,221.865595 256.398587,224.486032 C257.864899,225.045852 259.201233,225.399214 260.423836,225.554058 C266.1916,225.951094 267.487316,219.840712 264.32317,207.214973 C262.617211,200.461393 260.866573,195.343601 259.08344,191.845715 C272.402101,200.501096 282.418514,211.558545 289.116432,225.02203 C295.822473,238.481545 297.625915,252.036349 294.538942,265.694382 C293.320401,271.022603 291.415414,275.8585 288.811796,280.225894 C286.212241,284.601229 283.551758,288.111026 280.830348,290.771166 C278.108938,293.431307 274.575167,295.968366 270.233097,298.394255 C265.882903,300.812203 262.328823,302.582983 259.570857,303.690713 C256.804767,304.806384 253.108524,306.156306 248.478066,307.740479 C246.532461,308.220892 244.82244,308.538521 243.36019,308.693365 C241.89794,308.856149 240.65909,308.955408 239.643638,308.995112 C238.628187,309.034815 237.836135,308.832327 237.267482,308.399558 C236.698829,307.962819 236.256092,307.585635 235.927086,307.268006 C235.602141,306.946407 235.500596,306.334972 235.62245,305.421789 C235.744305,304.504636 235.870221,303.754239 235.988013,303.154715 C236.109867,302.559161 236.47543,301.630097 237.088762,300.355612 C237.693971,299.085097 238.181388,298.052804 238.546951,297.262703 C238.916575,296.472601 239.501475,295.317227 240.313836,293.80452 C242.101031,290.314575 243.624208,287.118437 244.883367,284.220075 C246.142527,281.317743 246.975197,278.558344 247.38544,275.937907 C248.766454,268.005131 247.706322,260.691731 244.21317,254.021529 C240.720017,247.355297 235.764614,240.839938 229.346961,234.487365 C230.971683,237.584244 231.499718,243.841529 230.931065,253.247309 C230.362412,262.661029 228.78237,269.98237 226.178752,275.223243 C224.96021,277.605458 223.54264,280.007525 221.913856,282.429443 C220.289134,284.855332 218.339467,287.297103 216.068918,289.754755 C213.790245,292.220347 211.475015,294.185675 209.12323,295.650737 C206.763321,297.12374 204.249063,298.052804 201.564209,298.44984 C198.883418,298.850846 196.283862,298.215589 193.769604,296.548038 C188.079014,292.974715 183.814118,288.662906 180.970854,283.620551 C178.12759,278.582166 176.344458,273.837588 175.613333,269.390786 C175.20309,267.004601 175,264.507245 175,261.886809 C175,259.266372 175.308697,255.891567 175.913906,251.758424 C176.523177,247.633222 178.107281,243.384938 180.666219,239.017544 C183.229218,234.65015 186.616764,230.644058 190.845104,226.983387 C189.703737,229.524417 189.277247,232.502186 189.561574,235.916694 C189.8459,239.335173 190.455171,242.571015 191.393448,245.62422 C192.323601,248.689337 193.968633,251.123167 196.32448,252.953502 C198.680327,254.783837 201.401737,255.296014 204.48871,254.501942 C205.955021,254.184313 207.210119,253.7039 208.266189,253.068642 C209.322258,252.433385 210.175238,251.627402 210.829188,250.626872 C211.475015,249.634282 212.027421,248.689337 212.470158,247.772184 C212.916956,246.859002 213.160665,245.608339 213.205345,244.020196 C213.241901,242.428082 213.282519,241.101982 213.323137,240.026015 C213.363755,238.954018 213.221592,237.389697 212.896647,235.32511 C212.571703,233.256554 212.327995,231.688262 212.169584,230.620236 C212.00305,229.548239 211.682167,227.844955 211.194751,225.494503 C210.703272,223.151991 210.378328,221.508263 210.215856,220.555377 C209.001376,213.960612 209.322258,207.353935 211.194751,200.727407" id="path-3"></path>
        <filter x="-9.5%" y="-4.4%" width="119.0%" height="117.6%" filterUnits="objectBoundingBox" id="filter-4">
            <feOffset dx="0" dy="8" in="SourceAlpha" result="shadowOffsetOuter1"></feOffset>
            <feGaussianBlur stdDeviation="2.5" in="shadowOffsetOuter1" result="shadowBlurOuter1"></feGaussianBlur>
            <feComposite in="shadowBlurOuter1" in2="SourceAlpha" operator="out" result="shadowBlurOuter1"></feComposite>
            <feColorMatrix values="0 0 0 0 0   0 0 0 0 0   0 0 0 0 0  0 0 0 0.5 0" type="matrix" in="shadowBlurOuter1"></feColorMatrix>
        </filter>
        <filter x="-7.0%" y="-2.4%" width="114.0%" height="113.5%" filterUnits="objectBoundingBox" id="filter-5">
            <feGaussianBlur stdDeviation="2.5" in="SourceAlpha" result="shadowBlurInner1"></feGaussianBlur>
            <feOffset dx="0" dy="2" in="shadowBlurInner1" result="shadowOffsetInner1"></feOffset>
            <feComposite in="shadowOffsetInner1" in2="SourceAlpha" operator="arithmetic" k2="-1" k3="1" result="shadowInnerInner1"></feComposite>
            <feColorMatrix values="0 0 0 0 0   0 0 0 0 0   0 0 0 0 0  0 0 0 0.5 0" type="matrix" in="shadowInnerInner1"></feColorMatrix>
        </filter>
        <polygon id="path-6" points="122 221 226 422 18 422"></polygon>
        <filter x="-5.0%" y="-5.2%" width="110.1%" height="110.4%" filterUnits="objectBoundingBox" id="filter-7">
            <feOffset dx="0" dy="0" in="SourceAlpha" result="shadowOffsetOuter1"></feOffset>
            <feGaussianBlur stdDeviation="3.5" in="shadowOffsetOuter1" result="shadowBlurOuter1"></feGaussianBlur>
            <feComposite in="shadowBlurOuter1" in2="SourceAlpha" operator="out" result="shadowBlurOuter1"></feComposite>
            <feColorMatrix values="0 0 0 0 0   0 0 0 0 0   0 0 0 0 0  0 0 0 0.5 0" type="matrix" in="shadowBlurOuter1"></feColorMatrix>
        </filter>
        <polygon id="path-8" points="56.935719 346 416.972678 346 472.464059 452 0.577380568 452"></polygon>
        <path d="M126.1,424.2 C127.366673,424.2 128,423.600006 128,422.4 L128,377 C128,375.799994 127.366673,375.2 126.1,375.2 L126.1,373.4 L143.2,373.4 L143.2,375.2 C142.666664,375.2 142.4,375.53333 142.4,376.2 C142.4,376.733336 143.06666,377.66666 144.4,379 L173.1,408.8 L173.1,377 C173.1,375.799994 172.233342,375.2 170.5,375.2 L170.5,373.4 L185.6,373.4 L185.6,375.2 C184.333327,375.2 183.7,375.799994 183.7,377 L183.7,422.4 C183.7,423.600006 184.333327,424.2 185.6,424.2 L185.6,426 L169.4,426 L169.4,424.2 C170.266671,424.2 170.7,423.900003 170.7,423.3 C170.7,422.833331 170.166672,422.066672 169.1,421 L138.6,389.2 L138.6,422.4 C138.6,423.600006 139.366659,424.2 140.9,424.2 L140.9,426 L126.1,426 L126.1,424.2 Z M203.1,424.2 C204.833342,424.2 205.7,423.600006 205.7,422.4 L205.7,377 C205.7,375.799994 204.833342,375.2 203.1,375.2 L203.1,373.4 L219.7,373.4 L219.7,375.2 C217.966658,375.2 217.1,375.799994 217.1,377 L217.1,422.4 C217.1,423.600006 217.966658,424.2 219.7,424.2 L219.7,426 L203.1,426 L203.1,424.2 Z M292.2,418.8 C291.999999,418.8 291.816667,418.783334 291.65,418.75 C291.483333,418.716666 291.300001,418.7 291.1,418.7 C290.699998,418.7 289.750008,419.099996 288.25,419.9 C286.749992,420.700004 284.850012,421.599995 282.55,422.6 C280.249988,423.600005 277.633348,424.466663 274.7,425.2 C271.766652,425.933337 268.700016,426.3 265.5,426.3 C261.299979,426.3 257.266686,425.766672 253.4,424.7 C249.533314,423.633328 246.116681,421.983344 243.15,419.75 C240.183318,417.516656 237.833342,414.73335 236.1,411.4 C234.366658,408.06665 233.5,404.166689 233.5,399.7 C233.5,395.299978 234.366658,391.416683 236.1,388.05 C237.833342,384.683316 240.183318,381.866678 243.15,379.6 C246.116681,377.333322 249.533314,375.633339 253.4,374.5 C257.266686,373.366661 261.299979,372.8 265.5,372.8 C268.900017,372.8 271.983319,373.066664 274.75,373.6 C277.516681,374.133336 279.933323,374.699997 282,375.3 C284.066677,375.900003 285.699994,376.466664 286.9,377 C288.100006,377.533336 288.833332,377.8 289.1,377.8 C289.433335,377.8 289.716665,377.633335 289.95,377.3 C290.183335,376.966665 290.366666,376.700001 290.5,376.5 L292,377.7 L284.2,389.8 L283.2,389.1 C283.2,388.899999 283.183334,388.700001 283.15,388.5 C283.116666,388.299999 283.066667,388.066668 283,387.8 C282.866666,387.066663 282.200006,386.31667 281,385.55 C279.799994,384.78333 278.316675,384.100003 276.55,383.5 C274.783325,382.899997 272.916676,382.400002 270.95,382 C268.983323,381.599998 267.166675,381.4 265.5,381.4 C262.699986,381.4 260.01668,381.799996 257.45,382.6 C254.88332,383.400004 252.650009,384.566659 250.75,386.1 C248.849991,387.633341 247.333339,389.516656 246.2,391.75 C245.066661,393.983344 244.5,396.533319 244.5,399.4 C244.5,402.266681 245.066661,404.816656 246.2,407.05 C247.333339,409.283344 248.849991,411.166659 250.75,412.7 C252.650009,414.233341 254.88332,415.399996 257.45,416.2 C260.01668,417.000004 262.699986,417.4 265.5,417.4 C267.633344,417.4 269.866655,417.150003 272.2,416.65 C274.533345,416.149997 276.666657,415.516671 278.6,414.75 C280.533343,413.98333 282.149994,413.116671 283.45,412.15 C284.750007,411.183329 285.4,410.266671 285.4,409.4 C285.4,408.933331 285.266668,408.533335 285,408.2 L286.4,407.4 L293,418 L292.2,418.8 Z M364.4,418.8 C364.199999,418.8 364.016668,418.783334 363.85,418.75 C363.683333,418.716666 363.500001,418.7 363.3,418.7 C362.899998,418.7 361.950008,419.099996 360.45,419.9 C358.949993,420.700004 357.050011,421.599995 354.75,422.6 C352.449989,423.600005 349.833348,424.466663 346.9,425.2 C343.966652,425.933337 340.900016,426.3 337.7,426.3 C333.499979,426.3 329.466686,425.766672 325.6,424.7 C321.733314,423.633328 318.316682,421.983344 315.35,419.75 C312.383319,417.516656 310.033342,414.73335 308.3,411.4 C306.566658,408.06665 305.7,404.166689 305.7,399.7 C305.7,395.299978 306.566658,391.416683 308.3,388.05 C310.033342,384.683316 312.383319,381.866678 315.35,379.6 C318.316682,377.333322 321.733314,375.633339 325.6,374.5 C329.466686,373.366661 333.499979,372.8 337.7,372.8 C341.100017,372.8 344.18332,373.066664 346.95,373.6 C349.716681,374.133336 352.133323,374.699997 354.2,375.3 C356.266677,375.900003 357.899994,376.466664 359.1,377 C360.300006,377.533336 361.033332,377.8 361.3,377.8 C361.633335,377.8 361.916666,377.633335 362.15,377.3 C362.383334,376.966665 362.566666,376.700001 362.7,376.5 L364.2,377.7 L356.4,389.8 L355.4,389.1 C355.4,388.899999 355.383333,388.700001 355.35,388.5 C355.316666,388.299999 355.266667,388.066668 355.2,387.8 C355.066666,387.066663 354.400006,386.31667 353.2,385.55 C351.999994,384.78333 350.516676,384.100003 348.75,383.5 C346.983325,382.899997 345.116677,382.400002 343.15,382 C341.183324,381.599998 339.366675,381.4 337.7,381.4 C334.899986,381.4 332.216679,381.799996 329.65,382.6 C327.083321,383.400004 324.850009,384.566659 322.95,386.1 C321.049991,387.633341 319.533339,389.516656 318.4,391.75 C317.266661,393.983344 316.7,396.533319 316.7,399.4 C316.7,402.266681 317.266661,404.816656 318.4,407.05 C319.533339,409.283344 321.049991,411.166659 322.95,412.7 C324.850009,414.233341 327.083321,415.399996 329.65,416.2 C332.216679,417.000004 334.899986,417.4 337.7,417.4 C339.833344,417.4 342.066655,417.150003 344.4,416.65 C346.733345,416.149997 348.866657,415.516671 350.8,414.75 C352.733343,413.98333 354.349993,413.116671 355.65,412.15 C356.950006,411.183329 357.6,410.266671 357.6,409.4 C357.6,408.933331 357.466668,408.533335 357.2,408.2 L358.6,407.4 L365.2,418 L364.4,418.8 Z" id="path-9"></path>
        <filter x="-2.9%" y="-9.3%" width="105.9%" height="126.2%" filterUnits="objectBoundingBox" id="filter-10">
            <feOffset dx="0" dy="2" in="SourceAlpha" result="shadowOffsetOuter1"></feOffset>
            <feGaussianBlur stdDeviation="2" in="shadowOffsetOuter1" result="shadowBlurOuter1"></feGaussianBlur>
            <feColorMatrix values="0 0 0 0 0   0 0 0 0 0   0 0 0 0 0  0 0 0 0.5 0" type="matrix" in="shadowBlurOuter1"></feColorMatrix>
        </filter>
        <filter x="-2.7%" y="-8.4%" width="105.4%" height="124.3%" filterUnits="objectBoundingBox" id="filter-11">
            <feGaussianBlur stdDeviation="1.5" in="SourceAlpha" result="shadowBlurInner1"></feGaussianBlur>
            <feOffset dx="-2" dy="2" in="shadowBlurInner1" result="shadowOffsetInner1"></feOffset>
            <feComposite in="shadowOffsetInner1" in2="SourceAlpha" operator="arithmetic" k2="-1" k3="1" result="shadowInnerInner1"></feComposite>
            <feColorMatrix values="0 0 0 0 0   0 0 0 0 0   0 0 0 0 0  0 0 0 0.5 0" type="matrix" in="shadowInnerInner1"></feColorMatrix>
        </filter>
    </defs>
    <g id="Page-1" stroke="none" stroke-width="1" fill="none" fill-rule="evenodd">
        <g id="logo">
            <polygon id="Triangle-2" stroke="#F6881F" stroke-width="45" fill="#FDB739" points="237 49 435 429 39 429"></polygon>
            <g id="Triangle-3">
                <use fill="black" fill-opacity="1" filter="url(#filter-2)" xlink:href="#path-1"></use>
                <use fill-opacity="0.440868433" fill="#D0021B" fill-rule="evenodd" xlink:href="#path-1"></use>
            </g>
            <g id="Fill-199">
                <use fill="black" fill-opacity="1" filter="url(#filter-4)" xlink:href="#path-3"></use>
                <use fill-opacity="0.710031703" fill="#D0021B" fill-rule="evenodd" xlink:href="#path-3"></use>
                <use fill="black" fill-opacity="1" filter="url(#filter-5)" xlink:href="#path-3"></use>
            </g>
            <g id="Triangle-3">
                <use fill="black" fill-opacity="1" filter="url(#filter-7)" xlink:href="#path-6"></use>
                <use fill-opacity="0.436197917" fill="#D0021B" fill-rule="evenodd" xlink:href="#path-6"></use>
            </g>
            <g id="Rectangle-2">
                <use fill="#000000" fill-rule="evenodd" xlink:href="#path-8"></use>
                <path stroke="#000000" stroke-width="1" d="M57.2361565,346.5 L1.40950048,451.5 L471.637937,451.5 L416.670059,346.5 L57.2361565,346.5 Z"></path>
            </g>
            <g id="NICC">
                <use fill="black" fill-opacity="1" filter="url(#filter-10)" xlink:href="#path-9"></use>
                <use fill="#FFFFFF" fill-rule="evenodd" xlink:href="#path-9"></use>
                <use fill="black" fill-opacity="1" filter="url(#filter-11)" xlink:href="#path-9"></use>
            </g>
        </g>
    </g>
</svg>