<?xml version="1.0" encoding="UTF-8"?>
<svg width="12px" height="11px" viewBox="0 0 12 11" version="1.1" xmlns="http://www.w3.org/2000/svg" xmlns:xlink="http://www.w3.org/1999/xlink">
    <!-- Generator: Sketch 47.1 (45422) - http://www.bohemiancoding.com/sketch -->
    <title>download-dark</title>
    <desc>Created with Sketch.</desc>
    <defs></defs>
    <g id="Page-1" stroke="none" stroke-width="1" fill="none" fill-rule="evenodd">
        <g id="download" fill-rule="nonzero" fill="#272727">
            <path d="M11.9166667,8.02083333 L11.9166667,10.3125 C11.9166667,10.5034722 11.8498264,10.6657986 11.7161458,10.7994792 C11.5824653,10.9331597 11.4201389,11 11.2291667,11 L0.6875,11 C0.496527778,11 0.334201389,10.9331597 0.200520833,10.7994792 C0.0668402778,10.6657986 0,10.5034722 0,10.3125 L0,8.02083333 C0,7.82986111 0.0668402778,7.66753472 0.200520833,7.53385417 C0.334201389,7.40017361 0.496527778,7.33333333 0.6875,7.33333333 L4.01757812,7.33333333 L4.984375,8.30729167 C5.26128472,8.57465278 5.5859375,8.70833333 5.95833333,8.70833333 C6.33072917,8.70833333 6.65538194,8.57465278 6.93229167,8.30729167 L7.90625,7.33333333 L11.2291667,7.33333333 C11.4201389,7.33333333 11.5824653,7.40017361 11.7161458,7.53385417 C11.8498264,7.66753472 11.9166667,7.82986111 11.9166667,8.02083333 Z M9.58919271,3.94596354 C9.6703559,4.14171007 9.63693576,4.30881076 9.48893229,4.44726563 L6.28059896,7.65559896 C6.19466146,7.74631076 6.08723958,7.79166667 5.95833333,7.79166667 C5.82942708,7.79166667 5.72200521,7.74631076 5.63606771,7.65559896 L2.42773438,4.44726563 C2.2797309,4.30881076 2.24631076,4.14171007 2.32747396,3.94596354 C2.40863715,3.75976563 2.54947917,3.66666667 2.75,3.66666667 L4.58333333,3.66666667 L4.58333333,0.458333333 C4.58333333,0.334201389 4.62868924,0.226779514 4.71940104,0.136067708 C4.81011285,0.0453559028 4.91753472,0 5.04166667,0 L6.875,0 C6.99913194,0 7.10655382,0.0453559028 7.19726562,0.136067708 C7.28797743,0.226779514 7.33333333,0.334201389 7.33333333,0.458333333 L7.33333333,3.66666667 L9.16666667,3.66666667 C9.3671875,3.66666667 9.50802951,3.75976563 9.58919271,3.94596354 Z" id="download-dark"></path>
        </g>
    </g>
</svg>